# Blender v3.2.2 OBJ File: 'items.blend'
# www.blender.org
mtllib bridge.mtl
o Cube.391_Cube.001
v -0.012835 0.080390 -0.300334
v 0.031508 0.141599 -0.243995
v 0.017866 0.154020 -0.261311
v -0.026477 0.092811 -0.317650
v 0.037744 0.154029 -0.276966
v -0.006599 0.092820 -0.333305
v 0.051386 0.141607 -0.259650
v 0.007043 0.080398 -0.315989
v 0.036765 0.238542 -0.211792
v 0.050344 0.229643 -0.192384
v 0.029374 0.219759 -0.182245
v 0.015796 0.228658 -0.201652
v -0.494299 -0.136167 -0.435816
v -0.494299 0.146854 -0.435816
v 0.492871 0.146854 -0.436221
v 0.492871 -0.136166 -0.436221
v 0.492987 -0.136167 -0.153200
v 0.492987 0.146854 -0.153200
v -0.494183 0.146854 -0.152795
v -0.494183 -0.136167 -0.152795
vt 0.691200 0.120065
vt 0.691241 0.120065
vt 0.691241 0.120107
vt 0.691200 0.120107
vt 0.691241 0.120148
vt 0.691200 0.120148
vt 0.691241 0.120189
vt 0.691200 0.120189
vt 0.691241 0.120231
vt 0.691200 0.120231
vt 0.691241 0.120148
vt 0.691241 0.120189
vt 0.691241 0.120065
vt 0.691241 0.120107
vt 0.691241 0.120231
vt 0.691799 0.119721
vt 0.692605 0.119719
vt 0.692605 0.120602
vt 0.691799 0.120604
vt 0.691160 0.119663
vt 0.691160 0.119704
vt 0.691119 0.119704
vt 0.691119 0.119663
vt 0.691201 0.119704
vt 0.691160 0.119704
vt 0.691160 0.119663
vt 0.691201 0.119663
vt 0.691119 0.119704
vt 0.691160 0.119704
vt 0.691119 0.119744
vt 0.691242 0.119663
vt 0.691201 0.119622
vt 0.691242 0.119622
vt 0.688344 0.123935
vt 0.688344 0.063703
vt 0.748575 0.063703
vt 0.748575 0.123935
vt 0.748574 0.123935
vt 0.688343 0.123935
vt 0.688343 0.063703
vt 0.748574 0.063703
vn -0.7856 -0.0003 0.6187
vn -0.4019 0.7605 -0.5099
vn 0.7856 0.0003 -0.6187
vn 0.4019 -0.7605 0.5099
vn -0.3035 -0.8712 -0.3859
vn 0.8394 0.3371 -0.4264
vn -0.8379 -0.3535 0.4159
vn 0.5445 -0.5078 0.6676
vn -0.5439 0.5114 -0.6653
vn -0.1587 0.8507 0.5011
vn -0.0004 0.0000 -1.0000
vn 0.0004 -0.0000 1.0000
vn 0.0000 -1.0000 -0.0000
vn -0.0000 1.0000 0.0000
vn -1.0000 0.0000 0.0004
vn 1.0000 -0.0000 -0.0004
usemtl Material.001
s 1
f 1/1/1 2/2/1 3/3/1 4/4/1
f 4/4/2 3/3/2 5/5/2 6/6/2
f 6/6/3 5/5/3 7/7/3 8/8/3
f 8/8/4 7/7/4 2/9/4 1/10/4
f 4/4/5 6/6/5 8/8/5 1/10/5
f 7/7/6 5/5/6 9/11/6 10/12/6
f 3/3/7 2/2/7 11/13/7 12/14/7
f 2/9/8 7/7/8 10/12/8 11/15/8
f 5/5/9 3/3/9 12/14/9 9/11/9
f 11/16/10 10/17/10 9/18/10 12/19/10
f 13/20/11 14/21/11 15/22/11 16/23/11
f 17/24/12 18/25/12 19/26/12 20/27/12
f 13/28/13 16/29/13 17/24/13 20/30/13
f 15/31/14 14/21/14 19/32/14 18/33/14
f 13/34/15 20/35/15 19/36/15 14/37/15
f 16/38/16 15/39/16 18/40/16 17/41/16
o Cube.391_Cube.002
v 0.012307 -0.080390 0.004138
v -0.032036 -0.141599 0.060476
v -0.018394 -0.154020 0.043161
v 0.025949 -0.092811 -0.013178
v -0.038272 -0.154029 0.027506
v 0.006071 -0.092820 -0.028833
v -0.051914 -0.141607 0.044821
v -0.007571 -0.080398 -0.011518
v -0.037293 -0.238542 0.092680
v -0.050872 -0.229643 0.112088
v -0.029902 -0.219759 0.122227
v -0.016324 -0.228658 0.102819
v 0.493771 0.136167 -0.131344
v 0.493771 -0.146854 -0.131344
v -0.493399 -0.146855 -0.131749
v -0.493399 0.136166 -0.131749
v -0.493515 0.136166 0.151271
v -0.493515 -0.146854 0.151272
v 0.493655 -0.146854 0.151676
v 0.493655 0.136167 0.151676
vt 0.691200 0.120065
vt 0.691241 0.120065
vt 0.691241 0.120107
vt 0.691200 0.120107
vt 0.691241 0.120148
vt 0.691200 0.120148
vt 0.691241 0.120189
vt 0.691200 0.120189
vt 0.691241 0.120231
vt 0.691200 0.120231
vt 0.691241 0.120148
vt 0.691241 0.120189
vt 0.691241 0.120065
vt 0.691241 0.120107
vt 0.691241 0.120231
vt 0.691799 0.119721
vt 0.692605 0.119719
vt 0.692605 0.120602
vt 0.691799 0.120604
vt 0.691160 0.119663
vt 0.691160 0.119704
vt 0.691119 0.119704
vt 0.691119 0.119663
vt 0.691201 0.119704
vt 0.691160 0.119704
vt 0.691160 0.119663
vt 0.691201 0.119663
vt 0.691119 0.119704
vt 0.691160 0.119704
vt 0.691119 0.119744
vt 0.691242 0.119663
vt 0.691201 0.119622
vt 0.691242 0.119622
vt 0.688344 0.123935
vt 0.688344 0.063703
vt 0.748575 0.063703
vt 0.748575 0.123935
vt 0.748574 0.123935
vt 0.688343 0.123935
vt 0.688343 0.063703
vt 0.748574 0.063703
vn 0.7856 0.0003 0.6187
vn 0.4019 -0.7605 -0.5099
vn -0.7856 -0.0003 -0.6187
vn -0.4019 0.7605 0.5099
vn 0.3035 0.8712 -0.3859
vn -0.8394 -0.3371 -0.4264
vn 0.8379 0.3535 0.4159
vn -0.5445 0.5078 0.6676
vn 0.5439 -0.5114 -0.6653
vn 0.1587 -0.8507 0.5011
vn 0.0004 -0.0000 -1.0000
vn -0.0004 0.0000 1.0000
vn -0.0000 1.0000 -0.0000
vn 0.0000 -1.0000 0.0000
vn 1.0000 0.0000 0.0004
vn -1.0000 -0.0000 -0.0004
usemtl Material.001
s 1
f 21/42/17 22/43/17 23/44/17 24/45/17
f 24/45/18 23/44/18 25/46/18 26/47/18
f 26/47/19 25/46/19 27/48/19 28/49/19
f 28/49/20 27/48/20 22/50/20 21/51/20
f 24/45/21 26/47/21 28/49/21 21/51/21
f 27/48/22 25/46/22 29/52/22 30/53/22
f 23/44/23 22/43/23 31/54/23 32/55/23
f 22/50/24 27/48/24 30/53/24 31/56/24
f 25/46/25 23/44/25 32/55/25 29/52/25
f 31/57/26 30/58/26 29/59/26 32/60/26
f 33/61/27 34/62/27 35/63/27 36/64/27
f 37/65/28 38/66/28 39/67/28 40/68/28
f 33/69/29 36/70/29 37/65/29 40/71/29
f 35/72/30 34/62/30 39/73/30 38/74/30
f 33/75/31 40/76/31 39/77/31 34/78/31
f 36/79/32 35/80/32 38/81/32 37/82/32
o Cube.391_Cube.003
v 0.012307 -0.080390 0.307652
v -0.032036 -0.141599 0.363991
v -0.018394 -0.154020 0.346675
v 0.025949 -0.092811 0.290336
v -0.038272 -0.154029 0.331020
v 0.006071 -0.092820 0.274681
v -0.051914 -0.141607 0.348336
v -0.007571 -0.080398 0.291997
v -0.037293 -0.238542 0.396194
v -0.050872 -0.229643 0.415602
v -0.029902 -0.219759 0.425741
v -0.016324 -0.228658 0.406334
v 0.493771 0.136167 0.172170
v 0.493771 -0.146854 0.172170
v -0.493399 -0.146855 0.171765
v -0.493399 0.136166 0.171765
v -0.493515 0.136166 0.454786
v -0.493515 -0.146854 0.454786
v 0.493655 -0.146854 0.455191
v 0.493655 0.136167 0.455191
vt 0.691200 0.120065
vt 0.691241 0.120065
vt 0.691241 0.120107
vt 0.691200 0.120107
vt 0.691241 0.120148
vt 0.691200 0.120148
vt 0.691241 0.120189
vt 0.691200 0.120189
vt 0.691241 0.120231
vt 0.691200 0.120231
vt 0.691241 0.120148
vt 0.691241 0.120189
vt 0.691241 0.120065
vt 0.691241 0.120107
vt 0.691241 0.120231
vt 0.691799 0.119721
vt 0.692605 0.119719
vt 0.692605 0.120602
vt 0.691799 0.120604
vt 0.691160 0.119663
vt 0.691160 0.119704
vt 0.691119 0.119704
vt 0.691119 0.119663
vt 0.691201 0.119704
vt 0.691160 0.119704
vt 0.691160 0.119663
vt 0.691201 0.119663
vt 0.691119 0.119704
vt 0.691160 0.119704
vt 0.691119 0.119744
vt 0.691242 0.119663
vt 0.691201 0.119622
vt 0.691242 0.119622
vt 0.688344 0.123935
vt 0.688344 0.063703
vt 0.748575 0.063703
vt 0.748575 0.123935
vt 0.748574 0.123935
vt 0.688343 0.123935
vt 0.688343 0.063703
vt 0.748574 0.063703
vn 0.7856 0.0003 0.6187
vn 0.4019 -0.7605 -0.5099
vn -0.7856 -0.0003 -0.6187
vn -0.4019 0.7605 0.5099
vn 0.3035 0.8712 -0.3859
vn -0.8394 -0.3371 -0.4264
vn 0.8379 0.3535 0.4159
vn -0.5445 0.5078 0.6676
vn 0.5439 -0.5114 -0.6653
vn 0.1587 -0.8507 0.5011
vn 0.0004 -0.0000 -1.0000
vn -0.0004 0.0000 1.0000
vn -0.0000 1.0000 -0.0000
vn 0.0000 -1.0000 0.0000
vn 1.0000 0.0000 0.0004
vn -1.0000 -0.0000 -0.0004
usemtl Material.001
s 1
f 41/83/33 42/84/33 43/85/33 44/86/33
f 44/86/34 43/85/34 45/87/34 46/88/34
f 46/88/35 45/87/35 47/89/35 48/90/35
f 48/90/36 47/89/36 42/91/36 41/92/36
f 44/86/37 46/88/37 48/90/37 41/92/37
f 47/89/38 45/87/38 49/93/38 50/94/38
f 43/85/39 42/84/39 51/95/39 52/96/39
f 42/91/40 47/89/40 50/94/40 51/97/40
f 45/87/41 43/85/41 52/96/41 49/93/41
f 51/98/42 50/99/42 49/100/42 52/101/42
f 53/102/43 54/103/43 55/104/43 56/105/43
f 57/106/44 58/107/44 59/108/44 60/109/44
f 53/110/45 56/111/45 57/106/45 60/112/45
f 55/113/46 54/103/46 59/114/46 58/115/46
f 53/116/47 60/117/47 59/118/47 54/119/47
f 56/120/48 55/121/48 58/122/48 57/123/48
o Cube.391_Cube.004
v 0.315788 0.362478 -0.018395
v 0.259450 0.423687 0.025947
v 0.276765 0.436109 0.012305
v 0.333104 0.374900 -0.032038
v 0.292420 0.436117 0.032184
v 0.348759 0.374908 -0.012159
v 0.275105 0.423696 0.045826
v 0.331444 0.362487 0.001483
v 0.227246 0.520630 0.031205
v 0.207838 0.511731 0.044783
v 0.197699 0.501848 0.023813
v 0.217107 0.510747 0.010235
v 0.451270 0.145922 -0.499859
v 0.451270 0.428943 -0.499859
v 0.451675 0.428943 0.487310
v 0.451675 0.145922 0.487310
v 0.168655 0.145922 0.487426
v 0.168655 0.428943 0.487426
v 0.168250 0.428943 -0.499744
v 0.168250 0.145922 -0.499744
vt 0.691200 0.120065
vt 0.691241 0.120065
vt 0.691241 0.120107
vt 0.691200 0.120107
vt 0.691241 0.120148
vt 0.691200 0.120148
vt 0.691241 0.120189
vt 0.691200 0.120189
vt 0.691241 0.120231
vt 0.691200 0.120231
vt 0.691241 0.120148
vt 0.691241 0.120189
vt 0.691241 0.120065
vt 0.691241 0.120107
vt 0.691241 0.120231
vt 0.691799 0.119721
vt 0.692605 0.119719
vt 0.692605 0.120602
vt 0.691799 0.120604
vt 0.691160 0.119663
vt 0.691160 0.119704
vt 0.691119 0.119704
vt 0.691119 0.119663
vt 0.691201 0.119704
vt 0.691160 0.119704
vt 0.691160 0.119663
vt 0.691201 0.119663
vt 0.691119 0.119704
vt 0.691160 0.119704
vt 0.691119 0.119744
vt 0.691242 0.119663
vt 0.691201 0.119622
vt 0.691242 0.119622
vt 0.688344 0.123935
vt 0.688344 0.063703
vt 0.748575 0.063703
vt 0.748575 0.123935
vt 0.748574 0.123935
vt 0.688343 0.123935
vt 0.688343 0.063703
vt 0.748574 0.063703
vn -0.6187 -0.0003 -0.7856
vn 0.5099 0.7605 -0.4019
vn 0.6187 0.0003 0.7856
vn -0.5099 -0.7605 0.4019
vn 0.3859 -0.8712 -0.3035
vn 0.4264 0.3371 0.8394
vn -0.4159 -0.3535 -0.8379
vn -0.6676 -0.5078 0.5445
vn 0.6653 0.5114 -0.5439
vn -0.5011 0.8507 -0.1587
vn 1.0000 0.0000 -0.0004
vn -1.0000 -0.0000 0.0004
vn 0.0000 -1.0000 0.0000
vn -0.0000 1.0000 -0.0000
vn -0.0004 -0.0000 -1.0000
vn 0.0004 0.0000 1.0000
usemtl Material.001
s 1
f 61/124/49 62/125/49 63/126/49 64/127/49
f 64/127/50 63/126/50 65/128/50 66/129/50
f 66/129/51 65/128/51 67/130/51 68/131/51
f 68/131/52 67/130/52 62/132/52 61/133/52
f 64/127/53 66/129/53 68/131/53 61/133/53
f 67/130/54 65/128/54 69/134/54 70/135/54
f 63/126/55 62/125/55 71/136/55 72/137/55
f 62/132/56 67/130/56 70/135/56 71/138/56
f 65/128/57 63/126/57 72/137/57 69/134/57
f 71/139/58 70/140/58 69/141/58 72/142/58
f 73/143/59 74/144/59 75/145/59 76/146/59
f 77/147/60 78/148/60 79/149/60 80/150/60
f 73/151/61 76/152/61 77/147/61 80/153/61
f 75/154/62 74/144/62 79/155/62 78/156/62
f 73/157/63 80/158/63 79/159/63 74/160/63
f 76/161/64 75/162/64 78/163/64 77/164/64
o Cube.391_Cube.005
v 0.011317 0.201699 0.006746
v -0.045022 0.140489 -0.037596
v -0.027707 0.128068 -0.023954
v 0.028632 0.189277 0.020388
v -0.012051 0.128059 -0.043833
v 0.044288 0.189269 0.000510
v -0.029367 0.140481 -0.057475
v 0.026972 0.201690 -0.013132
v -0.077226 0.043546 -0.042854
v -0.096634 0.052445 -0.056432
v -0.106773 0.062329 -0.035462
v -0.087365 0.053430 -0.021884
v 0.146798 0.418255 0.488210
v 0.146798 0.135234 0.488210
v 0.147204 0.135234 -0.498959
v 0.147204 0.418255 -0.498959
v -0.135817 0.418255 -0.499076
v -0.135817 0.135234 -0.499076
v -0.136222 0.135234 0.488095
v -0.136222 0.418255 0.488094
vt 0.691200 0.120065
vt 0.691241 0.120065
vt 0.691241 0.120107
vt 0.691200 0.120107
vt 0.691241 0.120148
vt 0.691200 0.120148
vt 0.691241 0.120189
vt 0.691200 0.120189
vt 0.691241 0.120231
vt 0.691200 0.120231
vt 0.691241 0.120148
vt 0.691241 0.120189
vt 0.691241 0.120065
vt 0.691241 0.120107
vt 0.691241 0.120231
vt 0.691799 0.119721
vt 0.692605 0.119719
vt 0.692605 0.120602
vt 0.691799 0.120604
vt 0.691160 0.119663
vt 0.691160 0.119704
vt 0.691119 0.119704
vt 0.691119 0.119663
vt 0.691201 0.119704
vt 0.691160 0.119704
vt 0.691160 0.119663
vt 0.691201 0.119663
vt 0.691119 0.119704
vt 0.691160 0.119704
vt 0.691119 0.119744
vt 0.691242 0.119663
vt 0.691201 0.119622
vt 0.691242 0.119622
vt 0.688344 0.123935
vt 0.688344 0.063703
vt 0.748575 0.063703
vt 0.748575 0.123935
vt 0.748574 0.123935
vt 0.688343 0.123935
vt 0.688343 0.063703
vt 0.748574 0.063703
vn -0.6187 0.0003 0.7856
vn 0.5099 -0.7605 0.4019
vn 0.6187 -0.0003 -0.7856
vn -0.5099 0.7605 -0.4019
vn 0.3859 0.8712 0.3035
vn 0.4264 -0.3371 -0.8394
vn -0.4159 0.3535 0.8379
vn -0.6676 0.5078 -0.5445
vn 0.6653 -0.5114 0.5439
vn -0.5011 -0.8507 0.1587
vn 1.0000 -0.0000 0.0004
vn -1.0000 0.0000 -0.0004
vn 0.0000 1.0000 -0.0000
vn -0.0000 -1.0000 0.0000
vn -0.0004 0.0000 1.0000
vn 0.0004 -0.0000 -1.0000
usemtl Material.001
s 1
f 81/165/65 82/166/65 83/167/65 84/168/65
f 84/168/66 83/167/66 85/169/66 86/170/66
f 86/170/67 85/169/67 87/171/67 88/172/67
f 88/172/68 87/171/68 82/173/68 81/174/68
f 84/168/69 86/170/69 88/172/69 81/174/69
f 87/171/70 85/169/70 89/175/70 90/176/70
f 83/167/71 82/166/71 91/177/71 92/178/71
f 82/173/72 87/171/72 90/176/72 91/179/72
f 85/169/73 83/167/73 92/178/73 89/175/73
f 91/180/74 90/181/74 89/182/74 92/183/74
f 93/184/75 94/185/75 95/186/75 96/187/75
f 97/188/76 98/189/76 99/190/76 100/191/76
f 93/192/77 96/193/77 97/188/77 100/194/77
f 95/195/78 94/185/78 99/196/78 98/197/78
f 93/198/79 100/199/79 99/200/79 94/201/79
f 96/202/80 95/203/80 98/204/80 97/205/80
o Cube.391_Cube.006
v -0.292198 0.201699 0.006746
v -0.348536 0.140489 -0.037596
v -0.331221 0.128068 -0.023954
v -0.274882 0.189277 0.020388
v -0.315566 0.128059 -0.043833
v -0.259227 0.189269 0.000510
v -0.332881 0.140481 -0.057475
v -0.276542 0.201690 -0.013132
v -0.380740 0.043546 -0.042854
v -0.400148 0.052445 -0.056432
v -0.410287 0.062329 -0.035462
v -0.390879 0.053430 -0.021884
v -0.156716 0.418255 0.488210
v -0.156716 0.135234 0.488210
v -0.156311 0.135234 -0.498959
v -0.156311 0.418255 -0.498959
v -0.439331 0.418255 -0.499076
v -0.439332 0.135234 -0.499076
v -0.439736 0.135234 0.488095
v -0.439736 0.418255 0.488094
vt 0.691200 0.120065
vt 0.691241 0.120065
vt 0.691241 0.120107
vt 0.691200 0.120107
vt 0.691241 0.120148
vt 0.691200 0.120148
vt 0.691241 0.120189
vt 0.691200 0.120189
vt 0.691241 0.120231
vt 0.691200 0.120231
vt 0.691241 0.120148
vt 0.691241 0.120189
vt 0.691241 0.120065
vt 0.691241 0.120107
vt 0.691241 0.120231
vt 0.691799 0.119721
vt 0.692605 0.119719
vt 0.692605 0.120602
vt 0.691799 0.120604
vt 0.691160 0.119663
vt 0.691160 0.119704
vt 0.691119 0.119704
vt 0.691119 0.119663
vt 0.691201 0.119704
vt 0.691160 0.119704
vt 0.691160 0.119663
vt 0.691201 0.119663
vt 0.691119 0.119704
vt 0.691160 0.119704
vt 0.691119 0.119744
vt 0.691242 0.119663
vt 0.691201 0.119622
vt 0.691242 0.119622
vt 0.688344 0.123935
vt 0.688344 0.063703
vt 0.748575 0.063703
vt 0.748575 0.123935
vt 0.748574 0.123935
vt 0.688343 0.123935
vt 0.688343 0.063703
vt 0.748574 0.063703
vn -0.6187 0.0003 0.7856
vn 0.5099 -0.7605 0.4019
vn 0.6187 -0.0003 -0.7856
vn -0.5099 0.7605 -0.4019
vn 0.3859 0.8712 0.3035
vn 0.4264 -0.3371 -0.8394
vn -0.4159 0.3535 0.8379
vn -0.6676 0.5078 -0.5445
vn 0.6653 -0.5114 0.5439
vn -0.5011 -0.8507 0.1587
vn 1.0000 -0.0000 0.0004
vn -1.0000 0.0000 -0.0004
vn 0.0000 1.0000 -0.0000
vn -0.0000 -1.0000 0.0000
vn -0.0004 0.0000 1.0000
vn 0.0004 -0.0000 -1.0000
usemtl Material.001
s 1
f 101/206/81 102/207/81 103/208/81 104/209/81
f 104/209/82 103/208/82 105/210/82 106/211/82
f 106/211/83 105/210/83 107/212/83 108/213/83
f 108/213/84 107/212/84 102/214/84 101/215/84
f 104/209/85 106/211/85 108/213/85 101/215/85
f 107/212/86 105/210/86 109/216/86 110/217/86
f 103/208/87 102/207/87 111/218/87 112/219/87
f 102/214/88 107/212/88 110/217/88 111/220/88
f 105/210/89 103/208/89 112/219/89 109/216/89
f 111/221/90 110/222/90 109/223/90 112/224/90
f 113/225/91 114/226/91 115/227/91 116/228/91
f 117/229/92 118/230/92 119/231/92 120/232/92
f 113/233/93 116/234/93 117/229/93 120/235/93
f 115/236/94 114/226/94 119/237/94 118/238/94
f 113/239/95 120/240/95 119/241/95 114/242/95
f 116/243/96 115/244/96 118/245/96 117/246/96
