# Blender v3.2.2 OBJ File: 'village.blend'
# www.blender.org
mtllib House3.mtl
o Plane.101
v -1.000000 0.000000 -1.000000
v -1.000000 2.000000 -1.000000
v -1.000000 0.000000 -3.000000
v -1.000000 2.000000 -3.000000
vt 0.123774 0.000247
vt 0.123774 0.125728
vt 0.000729 0.125728
vt 0.000729 0.000247
vn -1.0000 0.0000 0.0000
usemtl Material.002
s off
f 1/1/1 2/2/1 4/3/1 3/4/1
o Plane.100
v -1.000000 0.000000 -3.000000
v -1.000000 2.000000 -3.000000
v 1.000000 -0.000000 -3.000000
v 1.000000 2.000000 -3.000000
vt 0.373774 0.000247
vt 0.373774 0.125728
vt 0.250729 0.125728
vt 0.250729 0.000247
vn 0.0000 0.0000 -1.0000
usemtl Material.002
s off
f 5/5/2 6/6/2 8/7/2 7/8/2
o Plane.099
v -1.000000 2.000000 -3.000000
v -1.000000 4.000000 -3.000000
v 1.000000 2.000000 -3.000000
v 1.000000 4.000000 -3.000000
vt 0.373774 0.125247
vt 0.373774 0.250728
vt 0.250729 0.250728
vt 0.250729 0.125247
vn 0.0000 0.0000 -1.0000
usemtl Material.002
s off
f 9/9/3 10/10/3 12/11/3 11/12/3
o Plane.098
v -1.000000 2.000000 -1.000000
v -1.000000 4.000000 -1.000000
v -1.000000 2.000000 -3.000000
v -1.000000 4.000000 -3.000000
vt 0.123774 0.125247
vt 0.123774 0.250728
vt 0.000729 0.250728
vt 0.000729 0.125247
vn -1.0000 0.0000 0.0000
usemtl Material.002
s off
f 13/13/4 14/14/4 16/15/4 15/16/4
o Plane.097
v -1.000000 0.000000 1.000000
v -1.000000 2.000000 1.000000
v -1.000000 0.000000 -1.000000
v -1.000000 2.000000 -1.000000
vt 0.250075 0.000089
vt 0.250075 0.125620
vt 0.125169 0.125620
vt 0.125169 0.000089
vn -1.0000 0.0000 0.0000
usemtl Material.002
s off
f 17/17/5 18/18/5 20/19/5 19/20/5
o Plane.096
v -1.000000 2.000000 1.000000
v -1.000000 4.000000 1.000000
v -1.000000 2.000000 -1.000000
v -1.000000 4.000000 -1.000000
vt 0.248774 0.125247
vt 0.248774 0.250728
vt 0.125729 0.250728
vt 0.125729 0.125247
vn -1.0000 0.0000 0.0000
usemtl Material.002
s off
f 21/21/6 22/22/6 24/23/6 23/24/6
o Plane.095
v -1.000000 0.000000 3.000000
v -1.000000 2.000000 3.000000
v -1.000000 0.000000 1.000000
v -1.000000 2.000000 1.000000
vt 0.373774 0.000247
vt 0.373774 0.125728
vt 0.250729 0.125728
vt 0.250729 0.000247
vn -1.0000 0.0000 0.0000
usemtl Material.002
s off
f 25/25/7 26/26/7 28/27/7 27/28/7
o Plane.094
v -1.000000 2.000000 3.000000
v -1.000000 4.000000 3.000000
v -1.000000 2.000000 1.000000
v -1.000000 4.000000 1.000000
vt 0.373774 0.125247
vt 0.373774 0.250728
vt 0.250729 0.250728
vt 0.250729 0.125247
vn -1.0000 0.0000 0.0000
usemtl Material.002
s off
f 29/29/8 30/30/8 32/31/8 31/32/8
o Plane.093
v 1.000000 -0.000000 3.000000
v 1.000000 2.000000 3.000000
v -1.000000 0.000000 3.000000
v -1.000000 2.000000 3.000000
vt 0.123774 0.000247
vt 0.123774 0.125728
vt 0.000729 0.125728
vt 0.000729 0.000247
vn 0.0000 0.0000 1.0000
usemtl Material.002
s off
f 33/33/9 34/34/9 36/35/9 35/36/9
o Plane.092
v 1.000000 2.000000 3.000000
v 1.000000 4.000000 3.000000
v -1.000000 2.000000 3.000000
v -1.000000 4.000000 3.000000
vt 0.123774 0.125247
vt 0.123774 0.250728
vt 0.000729 0.250728
vt 0.000729 0.125247
vn 0.0000 0.0000 1.0000
usemtl Material.002
s off
f 37/37/10 38/38/10 40/39/10 39/40/10
o Plane.091
v 3.000000 0.000000 -3.000000
v 3.000000 2.000000 -3.000000
v 5.000000 -0.000000 -3.000000
v 5.000000 2.000000 -3.000000
vt 0.123774 0.000247
vt 0.123774 0.125728
vt 0.000729 0.125728
vt 0.000729 0.000247
vn 0.0000 0.0000 -1.0000
usemtl Material.002
s off
f 41/41/11 42/42/11 44/43/11 43/44/11
o Plane.090
v 3.000000 2.000000 -3.000000
v 3.000000 4.000000 -3.000000
v 5.000000 2.000000 -3.000000
v 5.000000 4.000000 -3.000000
vt 0.123774 0.125247
vt 0.123774 0.250728
vt 0.000729 0.250728
vt 0.000729 0.125247
vn 0.0000 0.0000 -1.0000
usemtl Material.002
s off
f 45/45/12 46/46/12 48/47/12 47/48/12
o Plane.089
v 5.000000 -0.000000 3.000000
v 5.000000 2.000000 3.000000
v 3.000000 0.000000 3.000000
v 3.000000 2.000000 3.000000
vt 0.373774 0.000247
vt 0.373774 0.125728
vt 0.250729 0.125728
vt 0.250729 0.000247
vn 0.0000 0.0000 1.0000
usemtl Material.002
s off
f 49/49/13 50/50/13 52/51/13 51/52/13
o Plane.088
v 5.000000 2.000000 3.000000
v 5.000000 4.000000 3.000000
v 3.000000 2.000000 3.000000
v 3.000000 4.000000 3.000000
vt 0.373774 0.125247
vt 0.373774 0.250728
vt 0.250729 0.250728
vt 0.250729 0.125247
vn 0.0000 0.0000 1.0000
usemtl Material.002
s off
f 53/53/14 54/54/14 56/55/14 55/56/14
o Plane.087
v 5.000000 0.000000 1.000000
v 5.000000 2.000000 1.000000
v 5.000000 0.000000 3.000000
v 5.000000 2.000000 3.000000
vt 0.123774 0.000247
vt 0.123774 0.125728
vt 0.000729 0.125728
vt 0.000729 0.000247
vn 1.0000 0.0000 0.0000
usemtl Material.002
s off
f 57/57/15 58/58/15 60/59/15 59/60/15
o Plane.086
v 5.000000 2.000000 1.000000
v 5.000000 4.000000 1.000000
v 5.000000 2.000000 3.000000
v 5.000000 4.000000 3.000000
vt 0.123774 0.125247
vt 0.123774 0.250728
vt 0.000729 0.250728
vt 0.000729 0.125247
vn 1.0000 0.0000 0.0000
usemtl Material.002
s off
f 61/61/16 62/62/16 64/63/16 63/64/16
o Plane.085
v 5.000000 0.000000 -1.000000
v 5.000000 2.000000 -1.000000
v 5.000000 0.000000 1.000000
v 5.000000 2.000000 1.000000
vt 0.498774 0.000247
vt 0.498774 0.125728
vt 0.375729 0.125728
vt 0.375729 0.000247
vn 1.0000 0.0000 0.0000
usemtl Material.002
s off
f 65/65/17 66/66/17 68/67/17 67/68/17
o Plane.084
v 5.000000 2.000000 -1.000000
v 5.000000 4.000000 -1.000000
v 5.000000 2.000000 1.000000
v 5.000000 4.000000 1.000000
vt 0.248774 0.125247
vt 0.248774 0.250728
vt 0.125729 0.250728
vt 0.125729 0.125247
vn 1.0000 0.0000 0.0000
usemtl Material.002
s off
f 69/69/18 70/70/18 72/71/18 71/72/18
o Plane.083
v 5.000000 0.000000 -3.000000
v 5.000000 2.000000 -3.000000
v 5.000000 0.000000 -1.000000
v 5.000000 2.000000 -1.000000
vt 0.373774 0.000247
vt 0.373774 0.125728
vt 0.250729 0.125728
vt 0.250729 0.000247
vn 1.0000 0.0000 0.0000
usemtl Material.002
s off
f 73/73/19 74/74/19 76/75/19 75/76/19
o Plane.082
v 5.000000 2.000000 -3.000000
v 5.000000 4.000000 -3.000000
v 5.000000 2.000000 -1.000000
v 5.000000 4.000000 -1.000000
vt 0.373774 0.125247
vt 0.373774 0.250728
vt 0.250729 0.250728
vt 0.250729 0.125247
vn 1.0000 0.0000 0.0000
usemtl Material.002
s off
f 77/77/20 78/78/20 80/79/20 79/80/20
o Plane.071
v 3.000000 -0.000000 3.000000
v 3.000000 2.000000 3.000000
v 1.000000 0.000000 3.000000
v 1.000000 2.000000 3.000000
vt 0.498774 0.000247
vt 0.498774 0.125728
vt 0.375729 0.125728
vt 0.375729 0.000247
vn 0.0000 0.0000 1.0000
usemtl Material.002
s off
f 81/81/21 82/82/21 84/83/21 83/84/21
o Plane.070
v 3.000000 2.000000 3.000000
v 3.000000 4.000000 3.000000
v 1.000000 2.000000 3.000000
v 1.000000 4.000000 3.000000
vt 0.498774 0.125247
vt 0.498774 0.250728
vt 0.375729 0.250728
vt 0.375729 0.125247
vn 0.0000 0.0000 1.0000
usemtl Material.002
s off
f 85/85/22 86/86/22 88/87/22 87/88/22
o Plane.068
v 1.000000 0.000000 -3.000000
v 1.000000 2.000000 -3.000000
v 3.000000 -0.000000 -3.000000
v 3.000000 2.000000 -3.000000
vt 0.498774 0.000247
vt 0.498774 0.125728
vt 0.375729 0.125728
vt 0.375729 0.000247
vn -0.0000 0.0000 -1.0000
usemtl Material.002
s off
f 89/89/23 90/90/23 92/91/23 91/92/23
o Plane.067
v 1.000000 2.000000 -3.000000
v 1.000000 4.000000 -3.000000
v 3.000000 2.000000 -3.000000
v 3.000000 4.000000 -3.000000
vt 0.498774 0.125247
vt 0.498774 0.250728
vt 0.375729 0.250728
vt 0.375729 0.125247
vn -0.0000 0.0000 -1.0000
usemtl Material.002
s off
f 93/93/24 94/94/24 96/95/24 95/96/24
o Plane.065_Plane.039
v 3.000000 6.000000 -0.999999
v 5.000000 6.000000 -1.000000
v 3.000000 4.000000 -3.000000
v 5.000000 4.000000 -3.000000
vt 0.140357 0.500635
vt 0.140357 0.624616
vt 0.001303 0.624616
vt 0.001303 0.500635
vn -0.0000 0.7071 -0.7071
usemtl Material.002
s off
f 97/97/25 98/98/25 100/99/25 99/100/25
o Plane.064_Plane.038
v 1.000000 6.000000 -0.999999
v 3.000000 6.000000 -1.000000
v 1.000000 4.000000 -2.999999
v 3.000000 4.000000 -3.000000
vt 0.140357 0.500635
vt 0.140357 0.624616
vt 0.001303 0.624616
vt 0.001303 0.500635
vn -0.0000 0.7071 -0.7071
usemtl Material.002
s off
f 101/101/26 102/102/26 104/103/26 103/104/26
o Plane.063_Plane.037
v -1.000000 6.000000 -0.999999
v 1.000000 6.000000 -1.000000
v -1.000000 4.000000 -2.999999
v 1.000000 4.000000 -3.000000
vt 0.140357 0.500635
vt 0.140357 0.624616
vt 0.001303 0.624616
vt 0.001303 0.500635
vn -0.0000 0.7071 -0.7071
usemtl Material.002
s off
f 105/105/27 106/106/27 108/107/27 107/108/27
o Plane.062_Plane.041
v 3.000000 6.000000 1.000000
v 1.000000 6.000000 1.000001
v 3.000000 4.000000 3.000000
v 1.000000 4.000000 3.000000
vt 0.140357 0.500635
vt 0.140357 0.624616
vt 0.001303 0.624616
vt 0.001303 0.500635
vn 0.0000 0.7071 0.7071
usemtl Material.002
s off
f 109/109/28 110/110/28 112/111/28 111/112/28
o Plane.061_Plane.040
v 5.000000 6.000000 1.000000
v 3.000000 6.000000 1.000001
v 5.000000 4.000000 3.000000
v 3.000000 4.000000 3.000000
vt 0.140357 0.500635
vt 0.140357 0.624616
vt 0.001303 0.624616
vt 0.001303 0.500635
vn 0.0000 0.7071 0.7071
usemtl Material.002
s off
f 113/113/29 114/114/29 116/115/29 115/116/29
o Plane.060_Plane.065
v 1.000000 6.000000 1.000000
v -1.000000 6.000000 1.000001
v 1.000000 4.000000 3.000000
v -1.000000 4.000000 3.000000
vt 0.140357 0.500635
vt 0.140357 0.624616
vt 0.001303 0.624616
vt 0.001303 0.500635
vn 0.0000 0.7071 0.7071
usemtl Material.002
s off
f 117/117/30 118/118/30 120/119/30 119/120/30
o Plane.059_Plane.064
v -1.000000 6.000000 1.000000
v 1.000000 6.000000 1.000000
v -1.000000 6.000000 -1.000000
v 1.000000 6.000000 -1.000000
vt 0.251000 0.501033
vt 0.374015 0.501033
vt 0.374015 0.625961
vt 0.251000 0.625961
vn 0.0000 1.0000 0.0000
usemtl Material.002
s off
f 121/121/31 122/122/31 124/123/31 123/124/31
o Plane.058_Plane.063
v 1.000000 6.000000 1.000000
v 3.000000 6.000000 1.000000
v 1.000000 6.000000 -1.000000
v 3.000000 6.000000 -1.000000
vt 0.251000 0.501033
vt 0.374015 0.501033
vt 0.374015 0.625961
vt 0.251000 0.625961
vn 0.0000 1.0000 0.0000
usemtl Material.002
s off
f 125/125/32 126/126/32 128/127/32 127/128/32
o Plane.057_Plane.036
v 3.000000 6.000000 1.000000
v 5.000000 6.000000 1.000000
v 3.000000 6.000000 -1.000000
v 5.000000 6.000000 -1.000000
vt 0.251000 0.501033
vt 0.374015 0.501033
vt 0.374015 0.625961
vt 0.251000 0.625961
vn 0.0000 1.0000 0.0000
usemtl Material.002
s off
f 129/129/33 130/130/33 132/131/33 131/132/33
o Plane.056_Plane.062
v 5.000000 4.000000 -1.000000
v 5.000000 6.000000 -1.000000
v 5.000000 4.000000 1.000000
v 5.000000 6.000000 1.000000
vt 0.248774 0.375247
vt 0.248774 0.500728
vt 0.125729 0.500728
vt 0.125729 0.375247
vn 1.0000 0.0000 0.0000
usemtl Material.002
s off
f 133/133/34 134/134/34 136/135/34 135/136/34
o Plane.055_Plane.061
v 5.000000 4.000000 1.000000
v 5.000000 6.000000 1.000000
v 5.000000 4.000000 3.000000
vt 0.123774 0.500728
vt 0.000729 0.375247
vt 0.123774 0.375247
vn 1.0000 0.0000 0.0000
usemtl Material.002
s off
f 138/137/35 139/138/35 137/139/35
o Plane.054_Plane.060
v 5.000000 4.000000 -1.000000
v 5.000000 6.000000 -1.000000
v 5.000000 4.000000 -3.000000
vt 0.250729 0.500728
vt 0.250729 0.375247
vt 0.373775 0.375247
vn 1.0000 0.0000 0.0000
usemtl Material.002
s off
f 141/140/36 140/141/36 142/142/36
o Plane.053_Plane.059
v -1.000000 4.000000 1.000000
v -1.000000 6.000000 1.000000
v -1.000000 4.000000 -1.000000
v -1.000000 6.000000 -1.000000
vt 0.248774 0.375247
vt 0.248774 0.500728
vt 0.125729 0.500728
vt 0.125729 0.375247
vn -1.0000 0.0000 -0.0000
usemtl Material.002
s off
f 143/143/37 144/144/37 146/145/37 145/146/37
o Plane.052_Plane.058
v -1.000000 4.000000 -1.000000
v -1.000000 6.000000 -1.000000
v -1.000000 4.000000 -3.000000
vt 0.123774 0.500728
vt 0.000729 0.375247
vt 0.123774 0.375247
vn -1.0000 0.0000 -0.0000
usemtl Material.002
s off
f 148/147/38 149/148/38 147/149/38
o Plane.051_Plane.045
v -1.000000 4.000000 1.000000
v -1.000000 6.000000 1.000000
v -1.000000 4.000000 3.000000
vt 0.250729 0.500728
vt 0.250729 0.375247
vt 0.373775 0.375247
vn -1.0000 0.0000 -0.0000
usemtl Material.002
s off
f 151/150/39 150/151/39 152/152/39
