# Blender v3.2.2 OBJ File: 'village.blend'
# www.blender.org
mtllib House1.mtl
o Plane
v -1.000000 0.000000 -1.000000
v -1.000000 2.000000 -1.000000
v -1.000000 0.000000 -3.000000
v -1.000000 2.000000 -3.000000
vt 0.123774 0.000247
vt 0.123774 0.125728
vt 0.000729 0.125728
vt 0.000729 0.000247
vn -1.0000 0.0000 0.0000
usemtl Material.001
s off
f 1/1/1 2/2/1 4/3/1 3/4/1
o Plane.001
v -1.000000 0.000000 -3.000000
v -1.000000 2.000000 -3.000000
v 1.000000 -0.000000 -3.000000
v 1.000000 2.000000 -3.000000
vt 0.373774 0.000247
vt 0.373774 0.125728
vt 0.250729 0.125728
vt 0.250729 0.000247
vn 0.0000 0.0000 -1.0000
usemtl Material.001
s off
f 5/5/2 6/6/2 8/7/2 7/8/2
o Plane.002
v -1.000000 2.000000 -3.000000
v -1.000000 4.000000 -3.000000
v 1.000000 2.000000 -3.000000
v 1.000000 4.000000 -3.000000
vt 0.373774 0.125247
vt 0.373774 0.250728
vt 0.250729 0.250728
vt 0.250729 0.125247
vn 0.0000 0.0000 -1.0000
usemtl Material.001
s off
f 9/9/3 10/10/3 12/11/3 11/12/3
o Plane.003
v -1.000000 2.000000 -1.000000
v -1.000000 4.000000 -1.000000
v -1.000000 2.000000 -3.000000
v -1.000000 4.000000 -3.000000
vt 0.123774 0.125247
vt 0.123774 0.250728
vt 0.000729 0.250728
vt 0.000729 0.125247
vn -1.0000 0.0000 0.0000
usemtl Material.001
s off
f 13/13/4 14/14/4 16/15/4 15/16/4
o Plane.004
v -1.000000 0.000000 1.000000
v -1.000000 2.000000 1.000000
v -1.000000 0.000000 -1.000000
v -1.000000 2.000000 -1.000000
vt 0.250075 0.000089
vt 0.250075 0.125620
vt 0.125169 0.125620
vt 0.125169 0.000089
vn -1.0000 0.0000 0.0000
usemtl Material.001
s off
f 17/17/5 18/18/5 20/19/5 19/20/5
o Plane.005
v -1.000000 2.000000 1.000000
v -1.000000 4.000000 1.000000
v -1.000000 2.000000 -1.000000
v -1.000000 4.000000 -1.000000
vt 0.248774 0.125247
vt 0.248774 0.250728
vt 0.125729 0.250728
vt 0.125729 0.125247
vn -1.0000 0.0000 0.0000
usemtl Material.001
s off
f 21/21/6 22/22/6 24/23/6 23/24/6
o Plane.006
v -1.000000 0.000000 3.000000
v -1.000000 2.000000 3.000000
v -1.000000 0.000000 1.000000
v -1.000000 2.000000 1.000000
vt 0.373774 0.000247
vt 0.373774 0.125728
vt 0.250729 0.125728
vt 0.250729 0.000247
vn -1.0000 0.0000 0.0000
usemtl Material.001
s off
f 25/25/7 26/26/7 28/27/7 27/28/7
o Plane.007
v -1.000000 2.000000 3.000000
v -1.000000 4.000000 3.000000
v -1.000000 2.000000 1.000000
v -1.000000 4.000000 1.000000
vt 0.373774 0.125247
vt 0.373774 0.250728
vt 0.250729 0.250728
vt 0.250729 0.125247
vn -1.0000 0.0000 0.0000
usemtl Material.001
s off
f 29/29/8 30/30/8 32/31/8 31/32/8
o Plane.008
v 1.000000 -0.000000 3.000000
v 1.000000 2.000000 3.000000
v -1.000000 0.000000 3.000000
v -1.000000 2.000000 3.000000
vt 0.123774 0.000247
vt 0.123774 0.125728
vt 0.000729 0.125728
vt 0.000729 0.000247
vn 0.0000 0.0000 1.0000
usemtl Material.001
s off
f 33/33/9 34/34/9 36/35/9 35/36/9
o Plane.009
v 1.000000 2.000000 3.000000
v 1.000000 4.000000 3.000000
v -1.000000 2.000000 3.000000
v -1.000000 4.000000 3.000000
vt 0.123774 0.125247
vt 0.123774 0.250728
vt 0.000729 0.250728
vt 0.000729 0.125247
vn 0.0000 0.0000 1.0000
usemtl Material.001
s off
f 37/37/10 38/38/10 40/39/10 39/40/10
o Plane.010
v 3.000000 0.000000 -3.000000
v 3.000000 2.000000 -3.000000
v 5.000000 -0.000000 -3.000000
v 5.000000 2.000000 -3.000000
vt 0.123774 0.000247
vt 0.123774 0.125728
vt 0.000729 0.125728
vt 0.000729 0.000247
vn 0.0000 0.0000 -1.0000
usemtl Material.001
s off
f 41/41/11 42/42/11 44/43/11 43/44/11
o Plane.011
v 3.000000 2.000000 -3.000000
v 3.000000 4.000000 -3.000000
v 5.000000 2.000000 -3.000000
v 5.000000 4.000000 -3.000000
vt 0.123774 0.125247
vt 0.123774 0.250728
vt 0.000729 0.250728
vt 0.000729 0.125247
vn 0.0000 0.0000 -1.0000
usemtl Material.001
s off
f 45/45/12 46/46/12 48/47/12 47/48/12
o Plane.012
v 5.000000 -0.000000 3.000000
v 5.000000 2.000000 3.000000
v 3.000000 0.000000 3.000000
v 3.000000 2.000000 3.000000
vt 0.373774 0.000247
vt 0.373774 0.125728
vt 0.250729 0.125728
vt 0.250729 0.000247
vn 0.0000 0.0000 1.0000
usemtl Material.001
s off
f 49/49/13 50/50/13 52/51/13 51/52/13
o Plane.013
v 5.000000 2.000000 3.000000
v 5.000000 4.000000 3.000000
v 3.000000 2.000000 3.000000
v 3.000000 4.000000 3.000000
vt 0.373774 0.125247
vt 0.373774 0.250728
vt 0.250729 0.250728
vt 0.250729 0.125247
vn 0.0000 0.0000 1.0000
usemtl Material.001
s off
f 53/53/14 54/54/14 56/55/14 55/56/14
o Plane.014
v 5.000000 0.000000 1.000000
v 5.000000 2.000000 1.000000
v 5.000000 0.000000 3.000000
v 5.000000 2.000000 3.000000
vt 0.123774 0.000247
vt 0.123774 0.125728
vt 0.000729 0.125728
vt 0.000729 0.000247
vn 1.0000 0.0000 0.0000
usemtl Material.001
s off
f 57/57/15 58/58/15 60/59/15 59/60/15
o Plane.015
v 5.000000 2.000000 1.000000
v 5.000000 4.000000 1.000000
v 5.000000 2.000000 3.000000
v 5.000000 4.000000 3.000000
vt 0.123774 0.125247
vt 0.123774 0.250728
vt 0.000729 0.250728
vt 0.000729 0.125247
vn 1.0000 0.0000 0.0000
usemtl Material.001
s off
f 61/61/16 62/62/16 64/63/16 63/64/16
o Plane.016
v 5.000000 0.000000 -1.000000
v 5.000000 2.000000 -1.000000
v 5.000000 0.000000 1.000000
v 5.000000 2.000000 1.000000
vt 0.498774 0.000247
vt 0.498774 0.125728
vt 0.375729 0.125728
vt 0.375729 0.000247
vn 1.0000 0.0000 0.0000
usemtl Material.001
s off
f 65/65/17 66/66/17 68/67/17 67/68/17
o Plane.017
v 5.000000 2.000000 -1.000000
v 5.000000 4.000000 -1.000000
v 5.000000 2.000000 1.000000
v 5.000000 4.000000 1.000000
vt 0.498774 0.125247
vt 0.498774 0.250728
vt 0.375729 0.250728
vt 0.375729 0.125247
vn 1.0000 0.0000 0.0000
usemtl Material.001
s off
f 69/69/18 70/70/18 72/71/18 71/72/18
o Plane.018
v 5.000000 0.000000 -3.000000
v 5.000000 2.000000 -3.000000
v 5.000000 0.000000 -1.000000
v 5.000000 2.000000 -1.000000
vt 0.373774 0.000247
vt 0.373774 0.125728
vt 0.250729 0.125728
vt 0.250729 0.000247
vn 1.0000 0.0000 0.0000
usemtl Material.001
s off
f 73/73/19 74/74/19 76/75/19 75/76/19
o Plane.019
v 5.000000 2.000000 -3.000000
v 5.000000 4.000000 -3.000000
v 5.000000 2.000000 -1.000000
v 5.000000 4.000000 -1.000000
vt 0.373774 0.125247
vt 0.373774 0.250728
vt 0.250729 0.250728
vt 0.250729 0.125247
vn 1.0000 0.0000 0.0000
usemtl Material.001
s off
f 77/77/20 78/78/20 80/79/20 79/80/20
o Plane.020
v -1.000000 4.000000 -3.000000
v -1.000000 6.000000 -3.000000
v 1.000000 4.000000 -3.000000
v 1.000000 6.000000 -3.000000
vt 0.373774 0.250247
vt 0.373774 0.374751
vt 0.250729 0.374751
vt 0.250729 0.250247
vn 0.0000 0.0000 -1.0000
usemtl Material.001
s off
f 81/81/21 82/82/21 84/83/21 83/84/21
o Plane.021
v -1.000000 4.000000 -1.000000
v -1.000000 6.000000 -1.000000
v -1.000000 4.000000 -3.000000
v -1.000000 6.000000 -3.000000
vt 0.123774 0.250247
vt 0.123774 0.375728
vt 0.000729 0.375728
vt 0.000729 0.250247
vn -1.0000 0.0000 0.0000
usemtl Material.001
s off
f 85/85/22 86/86/22 88/87/22 87/88/22
o Plane.022
v -1.000000 4.000000 1.000000
v -1.000000 6.000000 1.000000
v -1.000000 4.000000 -1.000000
v -1.000000 6.000000 -1.000000
vt 0.248774 0.250247
vt 0.248774 0.374751
vt 0.125729 0.374751
vt 0.125729 0.250247
vn -1.0000 0.0000 0.0000
usemtl Material.001
s off
f 89/89/23 90/90/23 92/91/23 91/92/23
o Plane.023
v -1.000000 4.000000 3.000000
v -1.000000 6.000000 3.000000
v -1.000000 4.000000 1.000000
v -1.000000 6.000000 1.000000
vt 0.373774 0.250247
vt 0.373774 0.374751
vt 0.250729 0.374751
vt 0.250729 0.250247
vn -1.0000 0.0000 0.0000
usemtl Material.001
s off
f 93/93/24 94/94/24 96/95/24 95/96/24
o Plane.024
v 1.000000 4.000000 3.000000
v 1.000000 6.000000 3.000000
v -1.000000 4.000000 3.000000
v -1.000000 6.000000 3.000000
vt 0.123774 0.250247
vt 0.123774 0.374751
vt 0.000729 0.374751
vt 0.000729 0.250247
vn 0.0000 0.0000 1.0000
usemtl Material.001
s off
f 97/97/25 98/98/25 100/99/25 99/100/25
o Plane.025
v 3.000000 4.000000 -3.000000
v 3.000000 6.000000 -3.000000
v 5.000000 4.000000 -3.000000
v 5.000000 6.000000 -3.000000
vt 0.123774 0.250247
vt 0.123774 0.374751
vt 0.000729 0.374751
vt 0.000729 0.250247
vn 0.0000 0.0000 -1.0000
usemtl Material.001
s off
f 101/101/26 102/102/26 104/103/26 103/104/26
o Plane.026
v 5.000000 4.000000 3.000000
v 5.000000 6.000000 3.000000
v 3.000000 4.000000 3.000000
v 3.000000 6.000000 3.000000
vt 0.373774 0.250247
vt 0.373774 0.374751
vt 0.250729 0.374751
vt 0.250729 0.250247
vn 0.0000 0.0000 1.0000
usemtl Material.001
s off
f 105/105/27 106/106/27 108/107/27 107/108/27
o Plane.027
v 5.000000 4.000000 1.000000
v 5.000000 6.000000 1.000000
v 5.000000 4.000000 3.000000
v 5.000000 6.000000 3.000000
vt 0.123774 0.250247
vt 0.123774 0.374751
vt 0.000729 0.374751
vt 0.000729 0.250247
vn 1.0000 0.0000 0.0000
usemtl Material.001
s off
f 109/109/28 110/110/28 112/111/28 111/112/28
o Plane.028
v 5.000000 4.000000 -1.000000
v 5.000000 6.000000 -1.000000
v 5.000000 4.000000 1.000000
v 5.000000 6.000000 1.000000
vt 0.248774 0.250247
vt 0.248774 0.374751
vt 0.125729 0.374751
vt 0.125729 0.250247
vn 1.0000 0.0000 0.0000
usemtl Material.001
s off
f 113/113/29 114/114/29 116/115/29 115/116/29
o Plane.029
v 5.000000 4.000000 -3.000000
v 5.000000 6.000000 -3.000000
v 5.000000 4.000000 -1.000000
v 5.000000 6.000000 -1.000000
vt 0.373774 0.250247
vt 0.373774 0.374751
vt 0.250729 0.374751
vt 0.250729 0.250247
vn 1.0000 0.0000 0.0000
usemtl Material.001
s off
f 117/117/30 118/118/30 120/119/30 119/120/30
o Plane.030
v 3.000000 -0.000000 3.000000
v 3.000000 2.000000 3.000000
v 1.000000 0.000000 3.000000
v 1.000000 2.000000 3.000000
vt 0.498774 0.000247
vt 0.498774 0.125728
vt 0.375729 0.125728
vt 0.375729 0.000247
vn 0.0000 0.0000 1.0000
usemtl Material.001
s off
f 121/121/31 122/122/31 124/123/31 123/124/31
o Plane.031
v 3.000000 2.000000 3.000000
v 3.000000 4.000000 3.000000
v 1.000000 2.000000 3.000000
v 1.000000 4.000000 3.000000
vt 0.498774 0.125247
vt 0.498774 0.250728
vt 0.375729 0.250728
vt 0.375729 0.125247
vn 0.0000 0.0000 1.0000
usemtl Material.001
s off
f 125/125/32 126/126/32 128/127/32 127/128/32
o Plane.032
v 3.000000 4.000000 3.000000
v 3.000000 6.000000 3.000000
v 1.000000 4.000000 3.000000
v 1.000000 6.000000 3.000000
vt 0.248774 0.250247
vt 0.248774 0.374751
vt 0.125729 0.374751
vt 0.125729 0.250247
vn 0.0000 0.0000 1.0000
usemtl Material.001
s off
f 129/129/33 130/130/33 132/131/33 131/132/33
o Plane.033
v 1.000000 0.000000 -3.000000
v 1.000000 2.000000 -3.000000
v 3.000000 -0.000000 -3.000000
v 3.000000 2.000000 -3.000000
vt 0.498774 0.000247
vt 0.498774 0.125728
vt 0.375729 0.125728
vt 0.375729 0.000247
vn -0.0000 0.0000 -1.0000
usemtl Material.001
s off
f 133/133/34 134/134/34 136/135/34 135/136/34
o Plane.034
v 1.000000 2.000000 -3.000000
v 1.000000 4.000000 -3.000000
v 3.000000 2.000000 -3.000000
v 3.000000 4.000000 -3.000000
vt 0.498774 0.125247
vt 0.498774 0.250728
vt 0.375729 0.250728
vt 0.375729 0.125247
vn -0.0000 0.0000 -1.0000
usemtl Material.001
s off
f 137/137/35 138/138/35 140/139/35 139/140/35
o Plane.035
v 1.000000 4.000000 -3.000000
v 1.000000 6.000000 -3.000000
v 3.000000 4.000000 -3.000000
v 3.000000 6.000000 -3.000000
vt 0.248774 0.250247
vt 0.248774 0.374751
vt 0.125729 0.374751
vt 0.125729 0.250247
vn -0.0000 0.0000 -1.0000
usemtl Material.001
s off
f 141/141/36 142/142/36 144/143/36 143/144/36
o Plane.041_Plane.042
v 1.000000 8.000000 1.000000
v -1.000000 8.000000 1.000001
v 1.000000 6.000000 3.000000
v -1.000000 6.000000 3.000000
vt 0.140357 0.500635
vt 0.140357 0.624616
vt 0.001303 0.624616
vt 0.001303 0.500635
vn 0.0000 0.7071 0.7071
usemtl Material.001
s off
f 145/145/37 146/146/37 148/147/37 147/148/37
o Plane.042_Plane.043
v -1.000000 8.000000 1.000000
v 1.000000 8.000000 1.000000
v -1.000000 8.000000 -1.000000
v 1.000000 8.000000 -1.000000
vt 0.251000 0.501033
vt 0.374015 0.501033
vt 0.374015 0.625961
vt 0.251000 0.625961
vn 0.0000 1.0000 0.0000
usemtl Material.001
s off
f 149/149/38 150/150/38 152/151/38 151/152/38
o Plane.043_Plane.044
v 1.000000 8.000000 1.000000
v 3.000000 8.000000 1.000000
v 1.000000 8.000000 -1.000000
v 3.000000 8.000000 -1.000000
vt 0.251000 0.501033
vt 0.374015 0.501033
vt 0.374015 0.625961
vt 0.251000 0.625961
vn 0.0000 1.0000 0.0000
usemtl Material.001
s off
f 153/153/39 154/154/39 156/155/39 155/156/39
o Plane.045_Plane.046
v 5.000000 6.000000 -1.000000
v 5.000000 8.000000 -1.000000
v 5.000000 6.000000 1.000000
v 5.000000 8.000000 1.000000
vt 0.248774 0.375247
vt 0.248774 0.500728
vt 0.125729 0.500728
vt 0.125729 0.375247
vn 1.0000 0.0000 0.0000
usemtl Material.001
s off
f 157/157/40 158/158/40 160/159/40 159/160/40
o Plane.046_Plane.047
v 5.000000 6.000000 1.000000
v 5.000000 8.000000 1.000000
v 5.000000 6.000000 3.000000
vt 0.123774 0.500728
vt 0.000729 0.375247
vt 0.123774 0.375247
vn 1.0000 0.0000 0.0000
usemtl Material.001
s off
f 162/161/41 163/162/41 161/163/41
o Plane.047_Plane.048
v 5.000000 6.000000 -1.000000
v 5.000000 8.000000 -1.000000
v 5.000000 6.000000 -3.000000
vt 0.250729 0.500728
vt 0.250729 0.375247
vt 0.373775 0.375247
vn 1.0000 0.0000 0.0000
usemtl Material.001
s off
f 165/164/42 164/165/42 166/166/42
o Plane.048_Plane.049
v -1.000000 6.000000 1.000000
v -1.000000 8.000000 1.000000
v -1.000000 6.000000 -1.000000
v -1.000000 8.000000 -1.000000
vt 0.248774 0.375247
vt 0.248774 0.500728
vt 0.125729 0.500728
vt 0.125729 0.375247
vn -1.0000 0.0000 -0.0000
usemtl Material.001
s off
f 167/167/43 168/168/43 170/169/43 169/170/43
o Plane.049_Plane.050
v -1.000000 6.000000 -1.000000
v -1.000000 8.000000 -1.000000
v -1.000000 6.000000 -3.000000
vt 0.123774 0.500728
vt 0.000729 0.375247
vt 0.123774 0.375247
vn -1.0000 0.0000 -0.0000
usemtl Material.001
s off
f 172/171/44 173/172/44 171/173/44
o Plane.050_Plane.051
v -1.000000 6.000000 1.000000
v -1.000000 8.000000 1.000000
v -1.000000 6.000000 3.000000
vt 0.250729 0.500728
vt 0.250729 0.375247
vt 0.373775 0.375247
vn -1.0000 0.0000 -0.0000
usemtl Material.001
s off
f 175/174/45 174/175/45 176/176/45
o Plane.039_Plane.052
v 3.000000 8.000000 1.000000
v 1.000000 8.000000 1.000001
v 3.000000 6.000000 3.000000
v 1.000000 6.000000 3.000000
vt 0.140357 0.500635
vt 0.140357 0.624616
vt 0.001303 0.624616
vt 0.001303 0.500635
vn 0.0000 0.7071 0.7071
usemtl Material.001
s off
f 177/177/46 178/178/46 180/179/46 179/180/46
o Plane.040_Plane.053
v 5.000000 8.000000 1.000000
v 3.000000 8.000000 1.000001
v 5.000000 6.000000 3.000000
v 3.000000 6.000000 3.000000
vt 0.140357 0.500635
vt 0.140357 0.624616
vt 0.001303 0.624616
vt 0.001303 0.500635
vn 0.0000 0.7071 0.7071
usemtl Material.001
s off
f 181/181/47 182/182/47 184/183/47 183/184/47
o Plane.036_Plane.054
v 3.000000 8.000000 -0.999999
v 5.000000 8.000000 -1.000000
v 3.000000 6.000000 -3.000000
v 5.000000 6.000000 -3.000000
vt 0.140357 0.500635
vt 0.140357 0.624616
vt 0.001303 0.624616
vt 0.001303 0.500635
vn -0.0000 0.7071 -0.7071
usemtl Material.001
s off
f 185/185/48 186/186/48 188/187/48 187/188/48
o Plane.037_Plane.055
v 1.000000 8.000000 -0.999999
v 3.000000 8.000000 -1.000000
v 1.000000 6.000000 -2.999999
v 3.000000 6.000000 -3.000000
vt 0.140357 0.500635
vt 0.140357 0.624616
vt 0.001303 0.624616
vt 0.001303 0.500635
vn -0.0000 0.7071 -0.7071
usemtl Material.001
s off
f 189/189/49 190/190/49 192/191/49 191/192/49
o Plane.038_Plane.056
v -1.000000 8.000000 -0.999999
v 1.000000 8.000000 -1.000000
v -1.000000 6.000000 -2.999999
v 1.000000 6.000000 -3.000000
vt 0.140357 0.500635
vt 0.140357 0.624616
vt 0.001303 0.624616
vt 0.001303 0.500635
vn -0.0000 0.7071 -0.7071
usemtl Material.001
s off
f 193/193/50 194/194/50 196/195/50 195/196/50
o Plane.044_Plane.057
v 3.000000 8.000000 1.000000
v 5.000000 8.000000 1.000000
v 3.000000 8.000000 -1.000000
v 5.000000 8.000000 -1.000000
vt 0.251000 0.501033
vt 0.374015 0.501033
vt 0.374015 0.625961
vt 0.251000 0.625961
vn 0.0000 1.0000 0.0000
usemtl Material.001
s off
f 197/197/51 198/198/51 200/199/51 199/200/51
