# Blender v3.2.2 OBJ File: 'items.blend'
# www.blender.org
mtllib log.mtl
o Cube.391_Cube.422
v 0.019286 0.073222 0.016523
v 0.099774 0.184324 0.118785
v 0.075012 0.206870 0.087355
v -0.005476 0.095768 -0.014907
v 0.111094 0.206886 0.058939
v 0.030606 0.095784 -0.043323
v 0.135856 0.184339 0.090369
v 0.055368 0.073237 -0.011893
v 0.109317 0.360288 0.177238
v 0.133963 0.344134 0.212466
v 0.095900 0.326195 0.230870
v 0.071254 0.342347 0.195643
v -0.440753 -0.122422 -0.122821
v -0.440753 0.132031 -0.122821
v 0.446775 0.132031 -0.123186
v 0.446775 -0.122422 -0.123186
v 0.446880 -0.122422 0.131268
v 0.446880 0.132031 0.131268
v -0.440649 0.132031 0.131632
v -0.440649 -0.122422 0.131632
vt 0.691200 0.120065
vt 0.691241 0.120065
vt 0.691241 0.120107
vt 0.691200 0.120107
vt 0.691241 0.120148
vt 0.691200 0.120148
vt 0.691241 0.120189
vt 0.691200 0.120189
vt 0.691241 0.120231
vt 0.691200 0.120231
vt 0.691241 0.120148
vt 0.691241 0.120189
vt 0.691241 0.120065
vt 0.691241 0.120107
vt 0.691241 0.120231
vt 0.691799 0.119721
vt 0.692605 0.119719
vt 0.692605 0.120602
vt 0.691799 0.120604
vt 0.691160 0.119663
vt 0.691160 0.119704
vt 0.691119 0.119704
vt 0.691119 0.119663
vt 0.691201 0.119704
vt 0.691160 0.119704
vt 0.691160 0.119663
vt 0.691201 0.119663
vt 0.691119 0.119704
vt 0.691160 0.119704
vt 0.691119 0.119744
vt 0.691242 0.119663
vt 0.691201 0.119622
vt 0.691242 0.119622
vt 0.688344 0.123935
vt 0.688344 0.063703
vt 0.748575 0.063703
vt 0.748575 0.123935
vt 0.748574 0.123935
vt 0.688343 0.123935
vt 0.688343 0.063703
vt 0.748574 0.063703
vn -0.7856 -0.0003 0.6187
vn -0.4019 0.7605 -0.5099
vn 0.7856 0.0003 -0.6187
vn 0.4019 -0.7605 0.5099
vn -0.3035 -0.8712 -0.3859
vn 0.8394 0.3371 -0.4264
vn -0.8379 -0.3535 0.4159
vn 0.5445 -0.5078 0.6676
vn -0.5439 0.5114 -0.6653
vn -0.1587 0.8507 0.5011
vn -0.0004 0.0000 -1.0000
vn 0.0004 -0.0000 1.0000
vn 0.0000 -1.0000 -0.0000
vn -0.0000 1.0000 0.0000
vn -1.0000 0.0000 0.0004
vn 1.0000 0.0000 -0.0004
usemtl Material
s 1
f 1/1/1 2/2/1 3/3/1 4/4/1
f 4/4/2 3/3/2 5/5/2 6/6/2
f 6/6/3 5/5/3 7/7/3 8/8/3
f 8/8/4 7/7/4 2/9/4 1/10/4
f 4/4/5 6/6/5 8/8/5 1/10/5
f 7/7/6 5/5/6 9/11/6 10/12/6
f 3/3/7 2/2/7 11/13/7 12/14/7
f 2/9/8 7/7/8 10/12/8 11/15/8
f 5/5/9 3/3/9 12/14/9 9/11/9
f 11/16/10 10/17/10 9/18/10 12/19/10
f 13/20/11 14/21/11 15/22/11 16/23/11
f 17/24/12 18/25/12 19/26/12 20/27/12
f 13/28/13 16/29/13 17/24/13 20/30/13
f 15/31/14 14/21/14 19/32/14 18/33/14
f 13/34/15 20/35/15 19/36/15 14/37/15
f 16/38/16 15/39/16 18/40/16 17/41/16
