# Blender v3.2.2 OBJ File: 'items.blend'
# www.blender.org
mtllib tree1.mtl
o Cube.006_Cube.009
v -0.048429 -0.496682 0.061638
v -0.048429 -0.010757 0.061638
v -0.048429 -0.496682 -0.093309
v -0.048429 -0.010757 -0.093309
v 0.106517 -0.496682 0.061638
v 0.106517 -0.010757 0.061638
v 0.106517 -0.496682 -0.093309
v 0.106517 -0.010757 -0.093309
vt 0.772237 0.020926
vt 0.773432 0.020926
vt 0.773432 0.022120
vt 0.772237 0.022120
vt 0.773432 0.023315
vt 0.772237 0.023315
vt 0.773432 0.024509
vt 0.772237 0.024509
vt 0.773432 0.025703
vt 0.772237 0.025703
vt 0.771043 0.023315
vt 0.771043 0.024509
vt 0.774626 0.023315
vt 0.774626 0.024509
vn -1.0000 0.0000 0.0000
vn 0.0000 0.0000 -1.0000
vn 1.0000 0.0000 0.0000
vn 0.0000 0.0000 1.0000
vn 0.0000 -1.0000 0.0000
vn 0.0000 1.0000 0.0000
usemtl Material
s off
f 1/1/1 2/2/1 4/3/1 3/4/1
f 3/4/2 4/3/2 8/5/2 7/6/2
f 7/6/3 8/5/3 6/7/3 5/8/3
f 5/8/4 6/7/4 2/9/4 1/10/4
f 3/11/5 7/6/5 5/8/5 1/12/5
f 8/5/6 4/13/6 2/14/6 6/7/6
o Cube.007_Cube.010
v -0.488258 0.169814 0.287778
v -0.488258 0.563072 0.287778
v -0.488258 0.169814 -0.105480
v -0.488258 0.563072 -0.105480
v -0.094999 0.169814 0.287778
v -0.094999 0.563072 0.287778
v -0.094999 0.169814 -0.105480
v -0.094999 0.563072 -0.105480
vt 0.749809 0.000447
vt 0.749809 0.062348
vt 0.687908 0.062348
vt 0.687908 0.000447
vt 0.687908 0.062348
vt 0.687908 0.000447
vt 0.749809 0.000447
vt 0.749809 0.062348
vt 0.687908 0.062348
vt 0.687908 0.000447
vt 0.749809 0.000447
vt 0.749809 0.062348
vt 0.687908 0.062348
vt 0.687908 0.000447
vt 0.749809 0.000447
vt 0.687908 0.062348
vt 0.749809 0.062348
vt 0.749809 0.000447
vn -1.0000 0.0000 0.0000
vn 0.0000 0.0000 -1.0000
vn 1.0000 0.0000 0.0000
vn 0.0000 0.0000 1.0000
vn 0.0000 -1.0000 0.0000
vn 0.0000 1.0000 0.0000
usemtl Material
s off
f 9/15/7 10/16/7 12/17/7 11/18/7
f 11/19/8 12/20/8 16/21/8 15/22/8
f 15/22/9 16/23/9 14/24/9 13/25/9
f 13/26/10 14/27/10 10/28/10 9/15/10
f 11/18/11 15/29/11 13/26/11 9/30/11
f 16/31/12 12/17/12 10/28/12 14/32/12
o Cube.008_Cube.011
v -0.161226 -0.198652 0.037074
v -0.161226 0.287273 0.037074
v -0.161226 -0.198652 -0.117873
v -0.161226 0.287273 -0.117873
v -0.006280 -0.198652 0.037074
v -0.006280 0.287273 0.037074
v -0.006280 -0.198652 -0.117873
v -0.006280 0.287273 -0.117873
vt 0.772237 0.020926
vt 0.773432 0.020926
vt 0.773432 0.022120
vt 0.772237 0.022120
vt 0.773432 0.023315
vt 0.772237 0.023315
vt 0.773432 0.024509
vt 0.772237 0.024509
vt 0.773432 0.025703
vt 0.772237 0.025703
vt 0.771043 0.023315
vt 0.771043 0.024509
vt 0.774626 0.023315
vt 0.774626 0.024509
vn -1.0000 0.0000 0.0000
vn 0.0000 0.0000 -1.0000
vn 1.0000 0.0000 0.0000
vn 0.0000 0.0000 1.0000
vn 0.0000 -1.0000 0.0000
vn 0.0000 1.0000 0.0000
usemtl Material
s off
f 17/33/13 18/34/13 20/35/13 19/36/13
f 19/36/14 20/35/14 24/37/14 23/38/14
f 23/38/15 24/37/15 22/39/15 21/40/15
f 21/40/16 22/39/16 18/41/16 17/42/16
f 19/43/17 23/38/17 21/40/17 17/44/17
f 24/37/18 20/45/18 18/46/18 22/39/18
o Cube.009_Cube.012
v 0.052145 -0.243800 0.128748
v 0.052145 0.242126 0.128748
v 0.052145 -0.243800 -0.003515
v 0.052145 0.242126 -0.003515
v 0.184408 -0.243800 0.128748
v 0.184408 0.242126 0.128748
v 0.184408 -0.243800 -0.003515
v 0.184408 0.242126 -0.003515
vt 0.772237 0.020926
vt 0.773432 0.020926
vt 0.773432 0.022120
vt 0.772237 0.022120
vt 0.773432 0.023315
vt 0.772237 0.023315
vt 0.773432 0.024509
vt 0.772237 0.024509
vt 0.773432 0.025703
vt 0.772237 0.025703
vt 0.771043 0.023315
vt 0.771043 0.024509
vt 0.774626 0.023315
vt 0.774626 0.024509
vn -1.0000 0.0000 0.0000
vn 0.0000 0.0000 -1.0000
vn 1.0000 0.0000 0.0000
vn 0.0000 0.0000 1.0000
vn 0.0000 -1.0000 0.0000
vn 0.0000 1.0000 0.0000
usemtl Material
s off
f 25/47/19 26/48/19 28/49/19 27/50/19
f 27/50/20 28/49/20 32/51/20 31/52/20
f 31/52/21 32/51/21 30/53/21 29/54/21
f 29/54/22 30/53/22 26/55/22 25/56/22
f 27/57/23 31/52/23 29/54/23 25/58/23
f 32/51/24 28/59/24 26/60/24 30/53/24
o Cube.010_Cube.013
v 0.061069 0.138116 0.196026
v 0.061069 0.554485 0.196026
v 0.061069 0.138116 -0.220344
v 0.061069 0.554485 -0.220344
v 0.477438 0.138116 0.196026
v 0.477438 0.554485 0.196026
v 0.477438 0.138116 -0.220344
v 0.477438 0.554485 -0.220344
vt 0.749809 0.000447
vt 0.749809 0.062348
vt 0.687908 0.062348
vt 0.687908 0.000447
vt 0.687908 0.062348
vt 0.687908 0.000447
vt 0.749809 0.000447
vt 0.749809 0.062348
vt 0.687908 0.062348
vt 0.687908 0.000447
vt 0.749809 0.000447
vt 0.749809 0.062348
vt 0.687908 0.062348
vt 0.687908 0.000447
vt 0.749809 0.000447
vt 0.687908 0.062348
vt 0.749809 0.062348
vt 0.749809 0.000447
vn -1.0000 0.0000 0.0000
vn 0.0000 0.0000 -1.0000
vn 1.0000 0.0000 0.0000
vn 0.0000 0.0000 1.0000
vn 0.0000 -1.0000 0.0000
vn 0.0000 1.0000 0.0000
usemtl Material
s off
f 33/61/25 34/62/25 36/63/25 35/64/25
f 35/65/26 36/66/26 40/67/26 39/68/26
f 39/68/27 40/69/27 38/70/27 37/71/27
f 37/72/28 38/73/28 34/74/28 33/61/28
f 35/64/29 39/75/29 37/72/29 33/76/29
f 40/77/30 36/63/30 34/74/30 38/78/30
o Cube.011_Cube.014
v -0.187094 0.096786 0.497681
v -0.187094 0.490044 0.497681
v -0.187094 0.096786 0.104423
v -0.187094 0.490044 0.104423
v 0.206164 0.096786 0.497681
v 0.206164 0.490044 0.497681
v 0.206164 0.096786 0.104423
v 0.206164 0.490044 0.104423
vt 0.749809 0.000447
vt 0.749809 0.062348
vt 0.687908 0.062348
vt 0.687908 0.000447
vt 0.687908 0.062348
vt 0.687908 0.000447
vt 0.749809 0.000447
vt 0.749809 0.062348
vt 0.687908 0.062348
vt 0.687908 0.000447
vt 0.749809 0.000447
vt 0.749809 0.062348
vt 0.687908 0.062348
vt 0.687908 0.000447
vt 0.749809 0.000447
vt 0.687908 0.062348
vt 0.749809 0.062348
vt 0.749809 0.000447
vn -1.0000 0.0000 0.0000
vn 0.0000 0.0000 -1.0000
vn 1.0000 0.0000 0.0000
vn 0.0000 0.0000 1.0000
vn 0.0000 -1.0000 0.0000
vn 0.0000 1.0000 0.0000
usemtl Material
s off
f 41/79/31 42/80/31 44/81/31 43/82/31
f 43/83/32 44/84/32 48/85/32 47/86/32
f 47/86/33 48/87/33 46/88/33 45/89/33
f 45/90/34 46/91/34 42/92/34 41/79/34
f 43/82/35 47/93/35 45/90/35 41/94/35
f 48/95/36 44/81/36 42/92/36 46/96/36
o Cube.012_Cube.015
v -0.252433 0.016361 -0.090203
v -0.252433 0.432730 -0.090203
v -0.252433 0.016361 -0.506572
v -0.252433 0.432730 -0.506572
v 0.163937 0.016361 -0.090203
v 0.163937 0.432730 -0.090203
v 0.163937 0.016361 -0.506572
v 0.163937 0.432730 -0.506572
vt 0.749809 0.000447
vt 0.749809 0.062348
vt 0.687908 0.062348
vt 0.687908 0.000447
vt 0.687908 0.062348
vt 0.687908 0.000447
vt 0.749809 0.000447
vt 0.749809 0.062348
vt 0.687908 0.062348
vt 0.687908 0.000447
vt 0.749809 0.000447
vt 0.749809 0.062348
vt 0.687908 0.062348
vt 0.687908 0.000447
vt 0.749809 0.000447
vt 0.687908 0.062348
vt 0.749809 0.062348
vt 0.749809 0.000447
vn -1.0000 0.0000 0.0000
vn 0.0000 0.0000 -1.0000
vn 1.0000 0.0000 0.0000
vn 0.0000 0.0000 1.0000
vn 0.0000 -1.0000 0.0000
vn 0.0000 1.0000 0.0000
usemtl Material
s off
f 49/97/37 50/98/37 52/99/37 51/100/37
f 51/101/38 52/102/38 56/103/38 55/104/38
f 55/104/39 56/105/39 54/106/39 53/107/39
f 53/108/40 54/109/40 50/110/40 49/97/40
f 51/100/41 55/111/41 53/108/41 49/112/41
f 56/113/42 52/99/42 50/110/42 54/114/42
o Cube.013_Cube.017
v -0.173585 0.335832 0.282581
v -0.173585 0.757376 0.282581
v -0.173585 0.335832 -0.133788
v -0.173585 0.757376 -0.133788
v 0.242784 0.335832 0.282581
v 0.242784 0.757376 0.282581
v 0.242784 0.335832 -0.133788
v 0.242784 0.757376 -0.133788
vt 0.749809 0.000447
vt 0.749809 0.062348
vt 0.687908 0.062348
vt 0.687908 0.000447
vt 0.687908 0.062348
vt 0.687908 0.000447
vt 0.749809 0.000447
vt 0.749809 0.062348
vt 0.687908 0.062348
vt 0.687908 0.000447
vt 0.749809 0.000447
vt 0.749809 0.062348
vt 0.687908 0.062348
vt 0.687908 0.000447
vt 0.749809 0.000447
vt 0.687908 0.062348
vt 0.749809 0.062348
vt 0.749809 0.000447
vn -1.0000 0.0000 0.0000
vn 0.0000 0.0000 -1.0000
vn 1.0000 0.0000 0.0000
vn 0.0000 0.0000 1.0000
vn 0.0000 -1.0000 0.0000
vn 0.0000 1.0000 0.0000
usemtl Material
s off
f 57/115/43 58/116/43 60/117/43 59/118/43
f 59/119/44 60/120/44 64/121/44 63/122/44
f 63/122/45 64/123/45 62/124/45 61/125/45
f 61/126/46 62/127/46 58/128/46 57/115/46
f 59/118/47 63/129/47 61/126/47 57/130/47
f 64/131/48 60/117/48 58/128/48 62/132/48
