# Blender v3.2.2 OBJ File: 'items.blend'
# www.blender.org
mtllib tree2.mtl
o Cube.001
v -0.088718 -0.521374 0.088718
v -0.088718 0.014703 0.088718
v -0.088718 -0.521374 -0.088718
v -0.088718 0.014703 -0.088718
v 0.088718 -0.521374 0.088718
v 0.088718 0.014703 0.088718
v 0.088718 -0.521374 -0.088718
v 0.088718 0.014703 -0.088718
vt 0.773136 0.037857
vt 0.773739 0.037857
vt 0.773739 0.038460
vt 0.773136 0.038460
vt 0.773739 0.039063
vt 0.773136 0.039063
vt 0.773739 0.039665
vt 0.773136 0.039665
vt 0.773739 0.040268
vt 0.773136 0.040268
vt 0.772533 0.039063
vt 0.772533 0.039665
vt 0.774341 0.039063
vt 0.774341 0.039665
vn -0.5774 -0.5774 0.5774
vn -0.5774 0.5774 0.5774
vn -0.5774 0.5774 -0.5774
vn -0.5774 -0.5774 -0.5774
vn 0.5774 0.5774 -0.5774
vn 0.5774 -0.5774 -0.5774
vn 0.5774 0.5774 0.5774
vn 0.5774 -0.5774 0.5774
usemtl Material
s 1
f 1/1/1 2/2/2 4/3/3 3/4/4
f 3/4/4 4/3/3 8/5/5 7/6/6
f 7/6/6 8/5/5 6/7/7 5/8/8
f 5/8/8 6/7/7 2/9/2 1/10/1
f 3/11/4 7/6/6 5/8/8 1/12/1
f 8/5/5 4/13/3 2/14/2 6/7/7
o Cube.002
v -0.361920 0.188502 0.361920
v -0.361920 -0.102599 0.361920
v -0.361920 0.188502 -0.361920
v -0.361920 -0.102599 -0.361920
v 0.361920 0.188502 0.361920
v 0.361920 -0.102599 0.361920
v 0.361920 0.188502 -0.361920
v 0.361920 -0.102599 -0.361920
vt 0.874758 0.000921
vt 0.782324 0.000921
vt 0.782324 0.030893
vt 0.874758 0.030893
vt 0.874955 0.000437
vt 0.782021 0.000437
vt 0.782021 0.031379
vt 0.874955 0.031379
vt 0.874995 0.000263
vt 0.782132 0.000263
vt 0.782132 0.031266
vt 0.874995 0.031266
vt 0.874437 0.001161
vt 0.781442 0.001161
vt 0.781830 0.031056
vt 0.874825 0.031056
vt 0.782527 0.032283
vt 0.782527 0.124456
vt 0.874944 0.124456
vt 0.874944 0.032283
vt 0.782963 0.033767
vt 0.782963 0.123917
vt 0.873113 0.123917
vt 0.873113 0.033767
vn -0.5774 0.5774 0.5774
vn -0.5774 0.5774 -0.5774
vn -0.5774 -0.5774 -0.5774
vn -0.5774 -0.5774 0.5774
vn 0.5774 0.5774 -0.5774
vn 0.5774 -0.5774 -0.5774
vn 0.5774 0.5774 0.5774
vn 0.5774 -0.5774 0.5774
usemtl Material
s 1
f 9/15/9 11/16/10 12/17/11 10/18/12
f 11/19/10 15/20/13 16/21/14 12/22/11
f 15/23/13 13/24/15 14/25/16 16/26/14
f 13/27/15 9/28/9 10/29/12 14/30/16
f 11/31/10 9/32/9 13/33/15 15/34/13
f 16/35/14 14/36/16 10/37/12 12/38/11
o Cube.003_Cube.005
v 0.262692 0.415798 0.262692
v 0.262692 0.187707 0.262692
v 0.262692 0.415798 -0.262692
v 0.262692 0.187707 -0.262692
v -0.262692 0.415798 0.262692
v -0.262692 0.187707 0.262692
v -0.262692 0.415798 -0.262692
v -0.262692 0.187707 -0.262692
vt 0.858422 0.000921
vt 0.858422 0.030893
vt 0.798434 0.030893
vt 0.798434 0.000921
vt 0.858549 0.000437
vt 0.858549 0.031379
vt 0.798238 0.031379
vt 0.798238 0.000437
vt 0.858575 0.000263
vt 0.858575 0.031266
vt 0.798309 0.031266
vt 0.798309 0.000263
vt 0.858213 0.001161
vt 0.858465 0.031056
vt 0.798113 0.031056
vt 0.797862 0.001161
vt 0.797688 0.047403
vt 0.859295 0.047403
vt 0.859295 0.108847
vt 0.797688 0.108847
vt 0.625000 0.500000
vt 0.875000 0.500000
vt 0.875000 0.750000
vt 0.625000 0.750000
vn 0.5774 0.5774 0.5774
vn 0.5774 -0.5774 0.5774
vn 0.5774 -0.5774 -0.5774
vn 0.5774 0.5774 -0.5774
vn -0.5774 -0.5774 -0.5774
vn -0.5774 0.5774 -0.5774
vn -0.5774 -0.5774 0.5774
vn -0.5774 0.5774 0.5774
usemtl Material
s 1
f 17/39/17 18/40/18 20/41/19 19/42/20
f 19/43/20 20/44/19 24/45/21 23/46/22
f 23/47/22 24/48/21 22/49/23 21/50/24
f 21/51/24 22/52/23 18/53/18 17/54/17
f 19/55/20 23/56/22 21/57/24 17/58/17
f 24/59/21 20/60/19 18/61/18 22/62/23
o Cube.004_Cube.008
v -0.148082 0.625592 0.148082
v -0.148082 0.389025 0.148082
v -0.148082 0.625592 -0.148082
v -0.148082 0.389025 -0.148082
v 0.148082 0.625592 0.148082
v 0.148082 0.389025 0.148082
v 0.148082 0.625592 -0.148082
v 0.148082 0.389025 -0.148082
vt 0.850930 0.000921
vt 0.805822 0.000921
vt 0.805822 0.030893
vt 0.850930 0.030893
vt 0.851026 0.000437
vt 0.805674 0.000437
vt 0.805674 0.031379
vt 0.851026 0.031379
vt 0.851045 0.000263
vt 0.805728 0.000263
vt 0.805728 0.031266
vt 0.851045 0.031266
vt 0.850773 0.001161
vt 0.805392 0.001161
vt 0.805581 0.031056
vt 0.850963 0.031056
vt 0.806115 0.055808
vt 0.806115 0.100442
vt 0.850867 0.100442
vt 0.850867 0.055808
vt 0.625000 0.500000
vt 0.625000 0.750000
vt 0.875000 0.750000
vt 0.875000 0.500000
vn -0.5774 0.5774 0.5774
vn -0.5774 0.5774 -0.5774
vn -0.5774 -0.5774 -0.5774
vn -0.5774 -0.5774 0.5774
vn 0.5774 0.5774 -0.5774
vn 0.5774 -0.5774 -0.5774
vn 0.5774 0.5774 0.5774
vn 0.5774 -0.5774 0.5774
usemtl Material
s 1
f 25/63/25 27/64/26 28/65/27 26/66/28
f 27/67/26 31/68/29 32/69/30 28/70/27
f 31/71/29 29/72/31 30/73/32 32/74/30
f 29/75/31 25/76/25 26/77/28 30/78/32
f 27/79/26 25/80/25 29/81/31 31/82/29
f 32/83/30 30/84/32 26/85/28 28/86/27
o Cube.005_Cube.007
v 0.084055 0.834471 0.084055
v 0.084055 0.618687 0.084055
v 0.084055 0.834471 -0.084055
v 0.084055 0.618687 -0.084055
v -0.084055 0.834471 0.084055
v -0.084055 0.618687 0.084055
v -0.084055 0.834471 -0.084055
v -0.084055 0.618687 -0.084055
vt 0.843409 0.000921
vt 0.843409 0.030893
vt 0.814386 0.030893
vt 0.814386 0.000921
vt 0.843482 0.000437
vt 0.843482 0.031379
vt 0.814273 0.031379
vt 0.814273 0.000437
vt 0.843496 0.000263
vt 0.843496 0.031266
vt 0.814315 0.031266
vt 0.814315 0.000263
vt 0.843290 0.001161
vt 0.843433 0.031056
vt 0.814203 0.031056
vt 0.814059 0.001161
vt 0.813747 0.063421
vt 0.843724 0.063421
vt 0.843724 0.093318
vt 0.813747 0.093318
vt 0.625000 0.500000
vt 0.875000 0.500000
vt 0.875000 0.750000
vt 0.625000 0.750000
vn 0.5774 0.5774 0.5774
vn 0.5774 -0.5774 0.5774
vn 0.5774 -0.5774 -0.5774
vn 0.5774 0.5774 -0.5774
vn -0.5774 -0.5774 -0.5774
vn -0.5774 0.5774 -0.5774
vn -0.5774 -0.5774 0.5774
vn -0.5774 0.5774 0.5774
usemtl Material
s 1
f 33/87/33 34/88/34 36/89/35 35/90/36
f 35/91/36 36/92/35 40/93/37 39/94/38
f 39/95/38 40/96/37 38/97/39 37/98/40
f 37/99/40 38/100/39 34/101/34 33/102/33
f 35/103/36 39/104/38 37/105/40 33/106/33
f 40/107/37 36/108/35 34/109/34 38/110/39
